PathFileType	4	(X/Y/Z)	0_coords_data.trc
DataRate	CameraRate	NumFrames	NumMarkers	Units	OrigDataRate	OrigDataStartFrame	OrigNumFrames
30.0	30.0	9	21	m	30.0	1	72
Frame#	Time	THUMB_TIP	THUMB_IP	THUMB_MCP	THUMB_CMC	INDEX_TIP	INDEX_DIP	INDEX_PIP	INDEX_MCP	MIDDLE_TIP	MIDDLE_DIP	MIDDLE_PIP	MIDDLE_MCP	RING_TIP	RING_DIP	RING_PIP	RING_MCP	PINKY_TIP	PINKY_DIP	PINKY_PIP	PINKY_MCP	WRIST
X1	Y1	Z1	X2	Y2	Z2	X3	Y3	Z3	X4	Y4	Z4	X5	Y5	Z5	X6	Y6	Z6	X7	Y7	Z7	X8	Y8	Z8	X9	Y9	Z9	X10	Y10	Z10	X11	Y11	Z11	X12	Y12	Z12	X13	Y13	Z13	X14	Y14	Z14	X15	Y15	Z15	X16	Y16	Z16	X17	Y17	Z17	X18	Y18	Z18	X19	Y19	Z19	X20	Y20	Z20	X21	Y21	Z21
0	-2.749317978547796e-18	0.4893270665877153	-0.021763472772339254	-0.16909369445307726	0.49451472834734467	-0.022001728305424573	-0.14670996375936501	0.4792373469991087	-0.02798532794630515	-0.12025966783515601	0.47801999017858565	-0.026307531747353785	-0.07569967409316464	0.49719612545456926	-0.01450487720104765	-0.09917955990410732	0.5148643966691436	-0.015397300395550761	-0.1030571587913256	0.5297801743569697	-0.00025878073904817	-0.11648677649165662	0.4931695475952965	0.021490725283241918	-0.11699381682913529	0.5000658694343416	-0.0161583722269929	-0.08585637979420219	0.5177098025913753	-0.012241339841116083	-0.087017620526403	0.5371275038816354	0.007045064259407874	-0.0970374530336619	0.5008937067303406	0.03318213999763575	-0.09670109481246697	0.49907948591518847	-0.006257445198431633	-0.07377343370515033	0.51679118236167	-0.007519967562400032	-0.070658655018281	0.5379663242645112	0.00479650847087254	-0.07514170783041296	0.5117990345738118	0.0356171993052139	-0.0748609931407826	0.503588876564397	-0.00900476173420095	-0.05575163217786744	0.5206337373947731	-0.010572052261674236	-0.05562388369216109	0.5371431481323587	0.0023878948834989977	-0.05508430414101939	0.5139799861325669	0.029744943054436424	-0.05109139886485581	0.4622830810018609	-0.023011742144276925	-0.05198982011943104
1	0.03333333333333339	0.48906523682909375	-0.021734844839845002	-0.16910600869428427	0.494289981932299	-0.021992845050298415	-0.1467311237895984	0.47905781859985463	-0.02799426088348289	-0.12025879468521194	0.4780119772186242	-0.026405375835008793	-0.07569118694025845	0.49721409371265135	-0.014575888153927186	-0.09914899937973398	0.5148847792303433	-0.015384304198452159	-0.10303401377273019	0.529757416346651	-0.00021035599674190664	-0.11647149099795523	0.4931553383309897	0.021554020224496928	-0.11695719320695885	0.4999978797029892	-0.01608921504522276	-0.08581308431733375	0.5176659807885399	-0.012268551580511433	-0.08692696704014596	0.5370515371024767	0.007041392417226233	-0.09696369056943688	0.5008614887648303	0.033239373463594624	-0.09665691473441518	0.4990743890456968	-0.006252969576230338	-0.07354036999612562	0.5168193209855753	-0.007491303220228396	-0.07061053719624971	0.5379711386615402	0.004866682811430212	-0.07508946220612239	0.5117778088189427	0.03566501256356425	-0.07478419144809079	0.5036075134891229	-0.00926327231321522	-0.05573931021250572	0.5206696824478054	-0.010627438480623086	-0.055592882438270874	0.5371450928700672	0.0023754773410162855	-0.05504785899530085	0.5139890761101156	0.029734957123054517	-0.051030247158762254	0.4622830810018609	-0.023011742144276925	-0.05198982011943104
2	0.06666666666666676	0.48885283047094286	-0.021710153914101915	-0.16912211638476693	0.4941064675408341	-0.021984926889555223	-0.14675419745273782	0.47891188121178907	-0.028002492736308393	-0.12026394551793756	0.47799739804544517	-0.02647037722218304	-0.07569146137592625	0.49722102498375786	-0.014615165441787537	-0.0991316860801072	0.5148936276294196	-0.01536198376237996	-0.10302030770281284	0.5297291702249829	-0.0001601396743542427	-0.1164672569932127	0.49312825487538303	0.02160660741894549	-0.11693395876924517	0.4999459285812605	-0.016036453194015254	-0.08577462150928239	0.5176284965547469	-0.012276244317247276	-0.08686440087507724	0.5369865027708391	0.007053323920898635	-0.09691651195009998	0.5008239279366635	0.033289403605063383	-0.09662629622204988	0.49906792212207873	-0.006248449617716978	-0.07334824212670893	0.5168401125622828	-0.007460124336633234	-0.07057676394121665	0.53796841604504	0.004936942363522379	-0.07505867292873641	0.5117478593063638	0.03571183887982732	-0.07472854761223174	0.5036166011606231	-0.009444789238915785	-0.05572656219796607	0.520690324785684	-0.010656191264829862	-0.055583500299998534	0.5371382992686766	0.0023810571304480055	-0.05503004868815803	0.5139842985436435	0.029738885664583825	-0.05098963790186406	0.4622830810018609	-0.023011742144276925	-0.05198982011943104
3	0.10000000000000014	0.4886852630363211	-0.021688635841002002	-0.1691415479869921	0.4939603625773291	-0.021977584991648258	-0.1467788595703281	0.4787962887238413	-0.02800966838408958	-0.12027442910837333	0.47797775383927743	-0.026507232874705577	-0.07569906945550126	0.49721874333419114	-0.01462793489596348	-0.09912535940148715	0.5148929241817204	-0.015332204013948303	-0.10301474706258235	0.5296968939859892	-0.00010896338255617088	-0.11647228233888879	0.4930909081134719	0.021649610391180185	-0.11692212634957122	0.49990793065517225	-0.015997699022086587	-0.08574117156399014	0.5175971674916049	-0.01226763262534758	-0.08682630050587142	0.5369318802583254	0.007078101681448401	-0.09689213362386417	0.5007827675548132	0.033332783426798684	-0.09660707538569341	0.49906033625106927	-0.006243299289943716	-0.07319189686766053	0.5168549433340708	-0.007427295260455935	-0.07055559030289865	0.5379599036123636	0.005006367528401667	-0.07504609810321006	0.5117113794063314	0.035757133235227334	-0.07469082433657809	0.5036174315980536	-0.009560321904562352	-0.05571429883358303	0.5206987101734768	-0.010662530734093512	-0.055591588096911504	0.5371250534532956	0.0024015333001274897	-0.05502811994047174	0.5139684479432263	0.029753966080640293	-0.05096616311665525	0.4622830810018609	-0.023011742144276925	-0.051989820119430985
4	0.13333333333333353	0.4885578395239738	-0.021669523577880212	-0.16916349010431342	0.49384772844030567	-0.021970426416566546	-0.14680445316766205	0.47870767346247767	-0.028015423680113227	-0.12028923596410013	0.477954493348521	-0.026520679857140794	-0.07571246554923472	0.49720923060434985	-0.014619269603986074	-0.09912778833202018	0.5148847094300818	-0.015296855678281429	-0.10301601741388039	0.5296620466740332	-5.764322956536283e-05	-0.11648474196082337	0.49304592471035225	0.021684172288212955	-0.11691967222160715	0.4998821192266903	-0.015970610379061334	-0.08571280231112016	0.5175717964029758	-0.012245877812007588	-0.08680901793896645	0.536887110829094	0.00711303404485375	-0.09688675133187113	0.5007397509848192	0.03337007834815364	-0.09659705883447789	0.49905223978751045	-0.006237030549072875	-0.07306721657491294	0.5168652058700425	-0.0073937024739682	-0.07054524326008083	0.5379473457083858	0.005074032487033198	-0.07504845808715316	0.5116705585033529	0.03580034607476179	-0.074667746267023	0.5036118834386896	-0.009620576487075816	-0.05570322405213235	0.5206978641588621	-0.01065068237566924	-0.055612976125968716	0.5371076149136829	0.0024337745782131437	-0.05503931648240512	0.5139443077678338	0.02977741097708564	-0.05095640066729057	0.4622830810018609	-0.023011742144276925	-0.051989820119430985
5	0.1666666666666669	0.48846580291109065	-0.021652069644310767	-0.16918689405206788	0.493764560199765	-0.02196307680250653	-0.1468300954050506	0.47864259747797355	-0.028019408871273077	-0.12030714147239852	0.4779290380299298	-0.0265154960371079	-0.0757300276234587	0.49719458122367743	-0.014594131883109762	-0.09913675830388213	0.5148710698081789	-0.015257843524583037	-0.10302278946420029	0.5296260890662572	-6.981019970653257e-06	-0.1165027906718839	0.49299593991208046	0.02171145322966772	-0.1169245497108054	0.49986691848135806	-0.01595289644823017	-0.08568949556220395	0.5175521780726602	-0.012214105510461981	-0.08680888624999711	0.5368516092769084	0.007155473715869776	-0.09689654731623781	0.5006966187678286	0.03340186524102162	-0.09659403418133272	0.4990444905034479	-0.00622918230239955	-0.07297086275554399	0.5168722966780606	-0.007360247985099155	-0.07054392694636746	0.5379324829592705	0.005139011396136373	-0.07506244968298575	0.5116275809659336	0.035840929500572716	-0.074656014166053	0.5036022257520487	-0.009635988560220188	-0.05569388727881375	0.5206908057832054	-0.010624872375930794	-0.055643475794207864	0.5370882275164415	0.0024746377265597586	-0.05506088281695598	0.5139146555848353	0.029806423475783328	-0.05095692098852478	0.4622830810018609	-0.023011742144276925	-0.05198982011943104
6	0.20000000000000023	0.488404371626729	-0.021635562237691364	-0.16921056669500517	0.4937068251519928	-0.02195519670041224	-0.14685476609599601	0.4785975925418867	-0.028021305622606962	-0.12032679194647283	0.47790280209480074	-0.02649650011957483	-0.07575009136856364	0.49717696612905615	-0.014557408188734744	-0.09915006166483492	0.5148541265830633	-0.01521707702366204	-0.10303372428039675	0.529590484169868	4.2234330636437e-05	-0.11652457358896146	0.49294359174594404	0.021732627728715315	-0.1169347002839276	0.4998608426980107	-0.015942314661249513	-0.08567117332631091	0.517538104600265	-0.012175420700097028	-0.08682222568156728	0.5368247736271816	0.007202799824973072	-0.09691769581068627	0.5006551065881175	0.03342873119968459	-0.09659577841109002	0.49903812739679065	-0.006219269634009317	-0.07290009722794333	0.516877614357097	-0.007327843916779542	-0.0705498274449936	0.5379170516975045	0.005200382827571848	-0.07508475743796855	0.5115846254915568	0.03587834166905879	-0.07465231619530105	0.5035909688576041	-0.00961676973379888	-0.055686736506656176	0.5206805586117258	-0.01058932327040396	-0.055678884484162805	0.537069128296854	0.0025209817276621305	-0.05509006742142175	0.5138822668859488	0.029838208686668977	-0.05096429232071681	0.4622830810018609	-0.023011742144276925	-0.05198982011943093
7	0.23333333333333361	0.4883687668292882	-0.021619334883134278	-0.1692332427883027	0.4936704910611822	-0.021946491415273717	-0.14687737803713669	0.4785691896547506	-0.028020837510310592	-0.1203467727792496	0.47787720710433135	-0.02646854998478565	-0.07577097706466907	0.4971586046358336	-0.014513937623037987	-0.09916549135709796	0.5148360264367139	-0.015176463561002884	-0.10304747768567862	0.5295566975386656	8.922518565646076e-05	-0.11654823404961162	0.49289151663998765	0.021748882183322604	-0.11694806202598318	0.49986242064256187	-0.015936662621049535	-0.08565772172297098	0.5175293695986606	-0.012132920044668816	-0.08684534834579172	0.5368059931291054	0.007252403271959751	-0.09694636686746966	0.500616944086933	0.03345127204116294	-0.09660006405588306	0.4990343278024716	-0.006206748637511916	-0.07285265159352122	0.5168825582800962	-0.007297408368797886	-0.07056111713640645	0.5379027836510379	0.005257232408775625	-0.07511206201641857	0.5115438648008934	0.0359120493506887	-0.07465333627122878	0.5035807549002611	-0.009572957550605832	-0.05568216921249425	0.5206701588541844	-0.010548249835028778	-0.05571499389183232	0.5370525539295548	0.002569677786581459	-0.0551241254558153	0.5138499175158688	0.029869981329360806	-0.050975084491156786	0.4622830810018609	-0.023011742144276925	-0.051989820119430985
7	0.2666666666666655	0.48835423005260437	-0.021602769616190676	-0.16925363826772738	0.4936515446345362	-0.021936714344899078	-0.14689682858615116	0.47855393860144824	-0.028017773977485505	-0.12036565812922262	0.4778536908996983	-0.02643653880078367	-0.07579100896097729	0.49714174360460717	-0.01446853449598573	-0.09918083754083928	0.5148189339383089	-0.015137904282718995	-0.10306270384388122	0.5295261974197873	0.00013322339377497272	-0.1165719189718814	0.4928423464798034	0.021761412447145356	-0.11696257545104088	0.4998701436831814	-0.015933766655061188	-0.0856490118343185	0.5175257714228503	-0.012089701486546534	-0.08687456154707962	0.536794654651759	0.007301675421094611	-0.09697872854572298	0.5005838545206202	0.033470090541985686	-0.09660466314578003	0.49903438144666024	-0.006190994931747684	-0.07282662570226744	0.5168885277994151	-0.007269862607251598	-0.07057595856713367	0.5378914058872407	0.005308653648173789	-0.07514104562434604	0.5115074656730266	0.035941528637726705	-0.07465575947452707	0.5035742828202918	-0.009514462910015786	-0.055680580387485135	0.5206626604390956	-0.010505855094142591	-0.055747601984124484	0.537040744850198	0.0026176151433879857	-0.05516032100584001	0.5138203847155642	0.029898969498962424	-0.05098587125245985	0.4622830810018609	-0.023011742144276925	-0.051989820119430985
